<?xml version="1.0" encoding="UTF-8" standalone="no"?>
<!-- Created by Keith Pinson with Inkscape (http://www.inkscape.org/) -->

<svg
   xmlns:dc="http://purl.org/dc/elements/1.1/"
   xmlns:cc="http://creativecommons.org/ns#"
   xmlns:rdf="http://www.w3.org/1999/02/22-rdf-syntax-ns#"
   xmlns:svg="http://www.w3.org/2000/svg"
   xmlns="http://www.w3.org/2000/svg"
   version="1.1"
   id="svg2"
   viewBox="0 0 1440.0001 1045"
   height="1045"
   width="1440">
  <defs
     id="defs4" />
  <metadata
     id="metadata7">
    <rdf:RDF>
      <cc:Work
         rdf:about="">
        <dc:format>image/svg+xml</dc:format>
        <dc:type
           rdf:resource="http://purl.org/dc/dcmitype/StillImage" />
        <dc:title></dc:title>
      </cc:Work>
    </rdf:RDF>
  </metadata>
  <g
     transform="translate(0,-7.3621457)"
     id="layer1">
    <rect
       y="164.36241"
       x="1.1126586"
       height="889.20538"
       width="1440.0001"
       id="rect4196"
       style="display:inline;opacity:1;fill:#eceff1;fill-opacity:1;fill-rule:evenodd;stroke:none;stroke-width:30;stroke-linecap:round;stroke-linejoin:round;stroke-miterlimit:4;stroke-dasharray:none;stroke-opacity:1" />
    <g
       id="text4204"
       style="font-style:normal;font-variant:normal;font-weight:900;font-stretch:normal;font-size:40px;line-height:125%;font-family:Roboto;-inkscape-font-specification:'Roboto, Heavy';text-align:start;letter-spacing:100px;word-spacing:0px;writing-mode:lr-tb;text-anchor:start;display:inline;opacity:1;fill:#6d797f;fill-opacity:1;stroke:none;stroke-width:1px;stroke-linecap:butt;stroke-linejoin:miter;stroke-opacity:1">
      <path
         id="path4900"
         style=""
         d="m 125.04437,225.25404 -6.60156,0 0,-21.01562 -6.48437,1.89453 0,-5 12.48046,-4.31641 0.60547,0 0,28.4375 z" />
      <path
         id="path4902"
         style=""
         d="m 273.5014,225.25404 -19.84375,0 0,-4.29687 9.14063,-9.60938 q 1.81641,-2.07031 2.59766,-3.53515 0.78125,-1.48438 0.78125,-2.57813 0,-1.83594 -0.80079,-2.79297 -0.80078,-0.95703 -2.32421,-0.95703 -0.76172,0 -1.38672,0.35156 -0.625,0.33204 -1.07422,0.9375 -0.42969,0.60547 -0.6836,1.42579 -0.23437,0.80078 -0.23437,1.75781 l -6.60156,0 q 0,-1.95313 0.72265,-3.69141 0.74219,-1.73828 2.07032,-3.04687 1.34765,-1.3086 3.20312,-2.05078 1.875,-0.76172 4.14063,-0.76172 2.36328,0 4.14062,0.5664 1.79688,0.54688 3.00781,1.60157 1.21094,1.05468 1.81641,2.59765 0.625,1.52344 0.625,3.47656 0,1.48438 -0.46875,2.85157 -0.46875,1.34765 -1.34766,2.69531 -0.8789,1.34766 -2.14843,2.75391 -1.26954,1.40625 -2.85157,2.98828 l -3.67187,4.23828 11.1914,0 0,5.07812 z" />
      <path
         id="path4904"
         style=""
         d="m 402.8764,208.28139 3.20313,0 q 1.83594,0 2.71484,-0.95703 0.87891,-0.97657 0.87891,-2.65625 0,-0.64454 -0.21484,-1.21094 -0.19532,-0.58594 -0.60547,-1.01563 -0.41016,-0.44922 -1.05469,-0.70312 -0.625,-0.25391 -1.48438,-0.25391 -0.60546,0 -1.1914,0.19531 -0.56641,0.17579 -1.03516,0.52735 -0.44922,0.33203 -0.74219,0.82031 -0.27343,0.48828 -0.27343,1.11328 l -6.58203,0 q 0,-1.8164 0.78125,-3.24219 0.78125,-1.44531 2.10937,-2.4414 1.32813,-0.9961 3.04688,-1.52344 1.73828,-0.52734 3.65234,-0.52734 2.26562,0 4.14062,0.52734 1.875,0.52734 3.20313,1.5625 1.34766,1.01563 2.08984,2.53906 0.74219,1.50391 0.74219,3.4961 0,0.97656 -0.3125,1.875 -0.3125,0.89843 -0.87891,1.69922 -0.5664,0.78125 -1.38671,1.42578 -0.82032,0.64453 -1.81641,1.11328 2.26562,0.82031 3.55469,2.5 1.28906,1.66015 1.28906,4.12109 0,1.99219 -0.82031,3.55469 -0.80078,1.5625 -2.22657,2.63672 -1.42578,1.07422 -3.3789,1.64062 -1.9336,0.54688 -4.19922,0.54688 -1.19141,0 -2.40234,-0.21485 -1.19141,-0.21484 -2.30469,-0.64453 -1.11328,-0.42968 -2.08985,-1.09375 -0.97656,-0.68359 -1.69921,-1.60156 -0.70313,-0.9375 -1.13282,-2.10937 -0.41015,-1.17188 -0.41015,-2.63672 l 6.62109,0 q 0,0.68359 0.29297,1.26953 0.29297,0.58594 0.78125,1.03515 0.50781,0.42969 1.17187,0.6836 0.66407,0.23437 1.40625,0.23437 0.89844,0 1.60157,-0.2539 0.72265,-0.27344 1.21093,-0.74219 0.48829,-0.46875 0.74219,-1.09375 0.25391,-0.625 0.25391,-1.34766 0,-2.14843 -1.07422,-3.04687 -1.07422,-0.89844 -2.96875,-0.89844 l -3.20313,0 0,-4.90234 z" />
      <path
         id="path4906"
         style=""
         d="m 557.44672,214.14076 2.89062,0 0,5.07813 -2.89062,0 0,6.03515 -6.58203,0 0,-6.03515 -10.9961,0 -0.39062,-4.02344 11.38672,-18.32031 0,-0.0586 6.58203,0 0,17.32422 z m -11.69922,0 5.11719,0 0,-8.75 -0.41016,0.66406 -4.70703,8.08594 z" />
      <path
         id="path4908"
         style=""
         d="m 683.65765,211.34779 1.73829,-14.53125 16.62109,0 0,5.11719 -11.26953,0 -0.64453,5.64453 q 0.23437,-0.13672 0.64453,-0.3125 0.41015,-0.17578 0.95703,-0.33203 0.54687,-0.17578 1.17187,-0.27344 0.625,-0.11718 1.3086,-0.11718 2.10937,0 3.75,0.64453 1.64062,0.625 2.7539,1.85547 1.11329,1.21093 1.69922,2.98828 0.58594,1.77734 0.58594,4.0625 0,1.83593 -0.60547,3.55468 -0.58594,1.71875 -1.79687,3.06641 -1.21094,1.32813 -3.06641,2.12891 -1.85547,0.80078 -4.39453,0.80078 -1.91406,0 -3.73047,-0.58594 -1.79687,-0.58594 -3.20312,-1.67969 -1.40625,-1.11328 -2.2461,-2.67578 -0.83984,-1.5625 -0.82031,-3.53515 l 6.60156,0 q 0.0977,1.5625 0.9961,2.48046 0.89843,0.91797 2.36328,0.91797 0.97656,0 1.62109,-0.39062 0.64453,-0.39063 1.01563,-1.05469 0.39062,-0.68359 0.52734,-1.58203 0.15625,-0.89844 0.15625,-1.89453 0,-1.05469 -0.23438,-1.89453 -0.23437,-0.83985 -0.72265,-1.42578 -0.48828,-0.58594 -1.26953,-0.89844 -0.76172,-0.33203 -1.83594,-0.33203 -0.70313,0 -1.26953,0.13672 -0.54688,0.13671 -0.97656,0.35156 -0.41016,0.21484 -0.70313,0.48828 -0.29297,0.25391 -0.48828,0.50781 l -5.23438,-1.23047 z" />
      <path
         id="path4910"
         style=""
         d="m 842.36859,196.40639 0,5.17578 -0.37109,0 q -1.67969,0 -3.16406,0.41015 -1.48438,0.41016 -2.67579,1.25 -1.17187,0.82032 -1.97265,2.07032 -0.80078,1.25 -1.09375,2.94922 0.99609,-0.97657 2.38281,-1.58204 1.40625,-0.60546 3.24219,-0.60546 1.95312,0 3.45703,0.76171 1.50391,0.74219 2.51953,2.07032 1.03516,1.30859 1.5625,3.08593 0.52734,1.77735 0.52734,3.84766 0,2.08984 -0.74218,3.88672 -0.74219,1.77734 -2.07032,3.10547 -1.30859,1.30859 -3.14453,2.07031 -1.8164,0.74219 -3.98437,0.74219 -2.2461,0 -4.17969,-0.76172 -1.91406,-0.78125 -3.32031,-2.24609 -1.40625,-1.48438 -2.20703,-3.61329 -0.78125,-2.1289 -0.78125,-4.82421 l 0,-2.40235 q 0,-2.4414 0.54687,-4.51172 0.56641,-2.08984 1.5625,-3.78906 0.9961,-1.71875 2.38281,-3.02734 1.38672,-1.32813 3.04688,-2.22657 1.66016,-0.89843 3.53516,-1.36718 1.875,-0.46875 3.86718,-0.46875 l 1.07422,0 z m -5.9375,14.70703 q -1.30859,0 -2.1875,0.60547 -0.8789,0.60547 -1.30859,1.48437 l 0,1.97266 q 0,2.7539 0.9375,4.08203 0.95703,1.30859 2.79297,1.30859 0.76172,0 1.40625,-0.35156 0.64453,-0.37109 1.11328,-0.99609 0.46875,-0.64453 0.72265,-1.50391 0.27344,-0.85937 0.27344,-1.875 0,-1.09375 -0.29297,-1.97266 -0.27343,-0.8789 -0.78125,-1.48437 -0.48828,-0.625 -1.17187,-0.9375 -0.6836,-0.33203 -1.50391,-0.33203 z" />
      <path
         id="path4912"
         style=""
         d="m 989.4389,200.33217 -10.625,24.92187 -6.95312,0 10.64453,-23.35937 -13.55469,0 0,-5.07813 20.48828,0 0,3.51563 z" />
      <path
         id="path4914"
         style=""
         d="m 1132.0561,204.4142 q 0,2.07031 -1.0352,3.65234 -1.0156,1.58203 -2.8125,2.53907 2.0313,0.99609 3.2227,2.73437 1.1914,1.71875 1.1914,4.08203 0,2.05078 -0.7422,3.59375 -0.7422,1.52344 -2.0508,2.5586 -1.3086,1.03515 -3.125,1.5625 -1.8164,0.50781 -3.9453,0.50781 -2.1484,0 -3.9844,-0.50781 -1.8164,-0.52735 -3.1445,-1.5625 -1.3281,-1.03516 -2.0898,-2.5586 -0.7618,-1.54297 -0.7618,-3.59375 0,-1.17187 0.3125,-2.20703 0.3125,-1.03516 0.8985,-1.89453 0.5859,-0.85938 1.4062,-1.54297 0.8399,-0.68359 1.875,-1.17187 -1.8164,-0.95704 -2.8515,-2.53907 -1.0352,-1.58203 -1.0352,-3.65234 0,-1.95313 0.6836,-3.4375 0.7031,-1.50391 1.9336,-2.51953 1.25,-1.01563 2.9492,-1.52344 1.7188,-0.52734 3.75,-0.52734 2.0508,0 3.7696,0.52734 1.7187,0.50781 2.9492,1.52344 1.25,1.01562 1.9336,2.51953 0.7031,1.48437 0.7031,3.4375 z m -6.0352,12.48047 q 0,-1.75781 -0.9179,-2.69531 -0.8985,-0.95704 -2.3828,-0.95704 -1.4844,0 -2.4024,0.95704 -0.918,0.9375 -0.918,2.69531 0,0.85937 0.2344,1.54297 0.2539,0.68359 0.6836,1.15234 0.4492,0.46875 1.0742,0.72266 0.625,0.2539 1.3672,0.2539 1.4649,0 2.3633,-0.97656 0.8984,-0.97656 0.8984,-2.69531 z m -0.5664,-12.12891 q 0,-1.52344 -0.7031,-2.40234 -0.6836,-0.87891 -2.0508,-0.87891 -1.3281,0 -2.0312,0.87891 -0.6836,0.85937 -0.6836,2.40234 0,1.52344 0.7031,2.46094 0.7031,0.9375 2.0703,0.9375 1.3477,0 2.0117,-0.9375 0.6836,-0.9375 0.6836,-2.46094 z" />
      <path
         id="path4916"
         style=""
         d="m 1260.6498,220.37123 q 1.7579,0 3.2032,-0.33203 1.4453,-0.35156 2.5195,-1.07422 1.0937,-0.74219 1.7773,-1.89453 0.6836,-1.17188 0.8985,-2.8125 -0.9766,0.87891 -2.2071,1.40625 -1.2109,0.50781 -2.5585,0.50781 -1.9336,0 -3.4961,-0.68359 -1.5625,-0.6836 -2.6563,-1.9336 -1.0742,-1.26953 -1.6601,-3.04687 -0.586,-1.77734 -0.586,-3.94531 0,-2.07032 0.7227,-3.92578 0.7422,-1.85547 2.0508,-3.22266 1.3281,-1.38672 3.1445,-2.1875 1.8164,-0.82031 3.9844,-0.82031 2.0507,0 3.8476,0.78125 1.8164,0.76172 3.1641,2.24609 1.3672,1.48438 2.1484,3.65234 0.7813,2.16797 0.7813,4.96094 l 0,2.26563 q 0,3.78906 -1.1524,6.66015 -1.1523,2.8711 -3.1836,4.80469 -2.0117,1.91406 -4.7461,2.89063 -2.7343,0.97656 -5.8984,0.97656 l -0.5078,0 0,-5.27344 0.4101,0 z m 5.4102,-8.94531 q 1.1719,0 1.9336,-0.52735 0.7617,-0.54687 1.1523,-1.32812 l 0,-2.73438 q 0,-2.73437 -0.9179,-4.04296 -0.918,-1.3086 -2.4805,-1.3086 -0.7813,0 -1.3867,0.44922 -0.6055,0.44922 -1.0352,1.17188 -0.4101,0.72265 -0.625,1.64062 -0.2148,0.89844 -0.2148,1.81641 0,1.03515 0.2148,1.93359 0.2344,0.87891 0.6836,1.54297 0.4492,0.64453 1.1133,1.01562 0.6641,0.3711 1.5625,0.3711 z" />
      <path
         id="path4918"
         style=""
         d="m 1419.0287,213.63295 q 0,3.08594 -0.7226,5.35156 -0.7227,2.2461 -2.0313,3.73047 -1.3086,1.48438 -3.125,2.20703 -1.8164,0.72266 -4.0039,0.72266 -2.207,0 -4.0429,-0.72266 -1.8164,-0.72265 -3.125,-2.20703 -1.3086,-1.48437 -2.0508,-3.73047 -0.7227,-2.26562 -0.7227,-5.35156 l 0,-5.19531 q 0,-3.06641 0.7227,-5.33203 0.7226,-2.26563 2.0312,-3.75 1.3086,-1.48438 3.125,-2.20704 1.8164,-0.72265 4.0235,-0.72265 2.1875,0 4.0039,0.72265 1.8359,0.72266 3.1445,2.20704 1.3086,1.48437 2.0313,3.75 0.7421,2.26562 0.7421,5.33203 l 0,5.19531 z m -6.582,-6.03516 q 0,-1.69922 -0.2344,-2.85156 -0.2343,-1.17187 -0.664,-1.89453 -0.4297,-0.72266 -1.0547,-1.03516 -0.6055,-0.3125 -1.3867,-0.3125 -0.7813,0 -1.4063,0.3125 -0.6054,0.3125 -1.0351,1.03516 -0.4102,0.72266 -0.6446,1.89453 -0.2148,1.15234 -0.2148,2.85156 l 0,6.83594 q 0,1.73828 0.2148,2.91016 0.2344,1.17187 0.6641,1.89453 0.4297,0.70312 1.0547,1.01562 0.625,0.3125 1.4062,0.3125 0.7618,0 1.3672,-0.3125 0.625,-0.3125 1.0547,-1.01562 0.4297,-0.72266 0.6445,-1.89453 0.2344,-1.17188 0.2344,-2.91016 l 0,-6.83594 z" />
    </g>
    <g
       id="text4198"
       style="font-style:normal;font-variant:normal;font-weight:normal;font-stretch:normal;font-size:87.5px;line-height:125%;font-family:sans-serif;-inkscape-font-specification:'sans-serif, Normal';text-align:start;letter-spacing:94px;word-spacing:0px;writing-mode:lr-tb;text-anchor:start;display:inline;opacity:0.52300002;fill:#37474f;fill-opacity:1;stroke:none;stroke-width:1px;stroke-linecap:butt;stroke-linejoin:miter;stroke-opacity:1">
      <path
         id="path4942"
         style=""
         d="m 166.00983,522.08154 -7.98951,0 0,-5.08423 q -1.06811,0.72632 -2.90527,2.05079 -1.79443,1.28173 -3.50342,2.05078 -2.00805,0.98266 -4.61425,1.62353 -2.60621,0.6836 -6.10962,0.6836 -6.45142,0 -10.9375,-4.27247 -4.48609,-4.27246 -4.48609,-10.89477 0,-5.42603 2.30713,-8.75855 2.34985,-3.37524 6.66504,-5.29785 4.35791,-1.9226 10.46753,-2.6062 6.10962,-0.68359 13.11645,-1.02539 l 0,-1.23901 q 0,-2.73438 -0.98266,-4.52881 -0.93994,-1.79443 -2.73438,-2.81983 -1.70898,-0.98266 -4.10156,-1.32446 -2.39258,-0.3418 -4.99878,-0.3418 -3.16162,0 -7.04956,0.8545 -3.88794,0.81176 -8.03223,2.39258 l -0.42724,0 0,-8.16041 q 2.34985,-0.64086 6.79321,-1.40991 4.44336,-0.76904 8.75855,-0.76904 5.0415,0 8.75854,0.85449 3.75977,0.81177 6.49414,2.81983 2.69165,1.96533 4.10156,5.08422 1.40992,3.1189 1.40992,7.73316 l 0,32.38525 z m -7.98951,-11.74926 0,-13.28736 q -3.67431,0.21362 -8.67309,0.64087 -4.95606,0.42725 -7.86133,1.23901 -3.46069,0.98267 -5.59692,3.07618 -2.13623,2.05078 -2.13623,5.68237 0,4.10156 2.47802,6.19507 2.47803,2.05078 7.56226,2.05078 4.22974,0 7.73315,-1.62354 3.50342,-1.66626 6.49414,-3.97338 z" />
      <path
         id="path4944"
         style=""
         d="m 309.65582,508.32422 q 0,6.53686 -5.42602,10.72388 -5.3833,4.18701 -14.73999,4.18701 -5.29785,0 -9.74121,-1.23902 -4.40064,-1.28173 -7.39136,-2.7771 l 0,-9.01489 0.42724,0 q 3.8025,2.86255 8.45948,4.57153 4.65698,1.66626 8.92944,1.66626 5.29785,0 8.28858,-1.70898 2.99072,-1.70898 2.99072,-5.3833 0,-2.81982 -1.62354,-4.27246 -1.62353,-1.45264 -6.23779,-2.47803 -1.70898,-0.38452 -4.48608,-0.89722 -2.73438,-0.51269 -4.99878,-1.11084 -6.28052,-1.66626 -8.92945,-4.8706 -2.6062,-3.24707 -2.6062,-7.94678 0,-2.948 1.19629,-5.5542 1.23901,-2.6062 3.71704,-4.65698 2.39258,-2.00806 6.0669,-3.16162 3.71704,-1.19629 8.28857,-1.19629 4.27246,0 8.63037,1.06812 4.40064,1.02539 7.30591,2.52075 l 0,8.58764 -0.42725,0 q -3.07617,-2.2644 -7.4768,-3.80249 -4.40064,-1.58081 -8.63037,-1.58081 -4.40064,0 -7.43409,1.70899 -3.03344,1.66626 -3.03344,4.99878 0,2.94799 1.83716,4.44336 1.79443,1.49536 5.81054,2.4353 2.22168,0.51269 4.95606,1.02539 2.7771,0.51269 4.61425,0.93994 5.59693,1.28174 8.63038,4.40064 3.03344,3.16162 3.03344,8.37402 z" />
      <path
         id="path4946"
         style=""
         d="m 453.89996,522.08154 -8.03222,0 0,-4.99878 q -3.4607,2.99073 -7.22046,4.65699 -3.75977,1.66626 -8.1604,1.66626 -8.54492,0 -13.58643,-6.57959 -4.99878,-6.57959 -4.99878,-18.24341 0,-6.0669 1.70899,-10.80933 1.75171,-4.74243 4.6997,-8.07495 2.90528,-3.24707 6.75049,-4.95605 3.88794,-1.70899 8.03223,-1.70899 3.75976,0 6.66504,0.81177 2.90527,0.76904 6.10962,2.4353 l 0,-20.67871 8.03222,0 0,66.47949 z m -8.03222,-11.74926 0,-27.38648 q -3.24707,-1.45264 -5.81055,-2.00806 -2.56348,-0.55542 -5.59692,-0.55542 -6.75049,0 -10.51026,4.69971 -3.75976,4.69971 -3.75976,13.33008 0,8.5022 2.90527,12.94556 2.90527,4.40063 9.31396,4.40063 3.41797,0 6.92139,-1.49536 3.50342,-1.53809 6.53687,-3.93066 z" />
      <path
         id="path4948"
         style=""
         d="m 595.38556,463.37793 -0.42725,0 q -1.32446,-0.38452 -3.46069,-0.76904 -2.13623,-0.42725 -3.75977,-0.42725 -5.16967,0 -7.51953,2.30713 -2.30713,2.2644 -2.30713,8.24585 l 0,1.62353 14.48365,0 0,6.75049 -14.2273,0 0,40.9729 -8.03223,0 0,-40.9729 -5.42602,0 0,-6.75049 5.42602,0 0,-1.58081 q 0,-8.50219 4.22974,-13.031 4.22974,-4.57154 12.21924,-4.57154 2.69165,0 4.82788,0.25635 2.17896,0.25635 3.97339,0.59815 l 0,7.34863 z" />
      <path
         id="path4950"
         style=""
         d="m 739.17828,516.65552 q 0,12.13379 -5.51147,17.81616 -5.51148,5.68237 -16.96167,5.68237 -3.80249,0 -7.43408,-0.55542 -3.58887,-0.51269 -7.09229,-1.49536 l 0,-8.20312 0.42725,0 q 1.96533,0.76904 6.23779,1.87988 4.27246,1.15356 8.54492,1.15356 4.10157,0 6.79322,-0.98266 2.69165,-0.98267 4.18701,-2.73438 1.49536,-1.66626 2.13623,-4.01611 0.64087,-2.34985 0.64087,-5.25513 l 0,-4.35791 q -3.63159,2.90528 -6.96411,4.35791 -3.2898,1.40991 -8.41675,1.40991 -8.54492,0 -13.58643,-6.15234 -4.99878,-6.19507 -4.99878,-17.43164 0,-6.15234 1.70899,-10.5957 1.75171,-4.48609 4.74243,-7.73316 2.7771,-3.03344 6.75049,-4.6997 3.97339,-1.70899 7.90405,-1.70899 4.14429,0 6.92139,0.85449 2.81982,0.81177 5.93872,2.52076 l 0.51269,-2.05079 7.51953,0 0,42.29737 z m -8.03222,-7.69043 0,-26.01929 q -3.20435,-1.45264 -5.98145,-2.05078 -2.73437,-0.64087 -5.46875,-0.64087 -6.62231,0 -10.4248,4.44336 -3.80249,4.44336 -3.80249,12.90283 0,8.03223 2.81982,12.17652 2.81983,4.14428 9.35669,4.14428 3.50342,0 7.00684,-1.32446 3.54614,-1.36719 6.49414,-3.63159 z" />
      <path
         id="path4952"
         style=""
         d="m 885.70117,522.08154 -8.03222,0 0,-27.17285 q 0,-3.28979 -0.38453,-6.15234 -0.38452,-2.90528 -1.40991,-4.52881 -1.06811,-1.79443 -3.07617,-2.64893 -2.00806,-0.89721 -5.2124,-0.89721 -3.2898,0 -6.87866,1.62353 -3.58887,1.62354 -6.87867,4.14429 l 0,35.63232 -8.03222,0 0,-66.47949 8.03222,0 0,24.05396 q 3.75977,-3.1189 7.77588,-4.87061 4.01612,-1.75171 8.24585,-1.75171 7.73316,0 11.79199,4.65698 4.05884,4.65699 4.05884,13.41553 l 0,30.97534 z" />
      <path
         id="path4954"
         style=""
         d="m 1010.0356,466.36865 -9.0576,0 0,-8.3313 9.0576,0 0,8.3313 z m -0.5127,56.86646 q 0,8.37402 -4.2724,12.64648 -4.2725,4.27246 -11.45021,4.27246 -1.70898,0 -4.52881,-0.34179 -2.7771,-0.3418 -4.65698,-0.8545 l 0,-7.6477 0.42725,0 q 1.19629,0.46997 3.20434,1.06811 2.05078,0.59815 3.97339,0.59815 3.07617,0 4.95606,-0.85449 1.87988,-0.8545 2.81982,-2.56348 0.93994,-1.70898 1.19634,-4.14429 0.299,-2.39258 0.299,-5.85327 l 0,-38.45215 -9.95481,0 0,-6.75049 17.98701,0 0,48.87696 z" />
      <path
         id="path4956"
         style=""
         d="m 1176.9784,522.08154 -10.5957,0 -19.1406,-20.89233 -5.2124,4.95605 0,15.93628 -8.0323,0 0,-66.47949 8.0323,0 0,42.63916 23.1994,-23.88306 10.1258,0 -22.1741,22.0459 23.7976,25.67749 z" />
      <path
         id="path4958"
         style=""
         d="m 1297.5555,522.08154 -8.0322,0 0,-66.47949 8.0322,0 0,66.47949 z" />
    </g>
    <g
       id="text4198-0"
       style="font-style:normal;font-variant:normal;font-weight:normal;font-stretch:normal;font-size:87.5px;line-height:125%;font-family:sans-serif;-inkscape-font-specification:'sans-serif, Normal';text-align:start;letter-spacing:81px;word-spacing:0px;writing-mode:lr-tb;text-anchor:start;display:inline;opacity:0.528;fill:#37474f;fill-opacity:1;stroke:none;stroke-width:1px;stroke-linecap:butt;stroke-linejoin:miter;stroke-opacity:1">
      <path
         id="path4921"
         style=""
         d="m 94.104032,320.2399 -8.032227,0 0,-22.98584 q -3.717041,3.20434 -7.391357,4.78516 -3.674317,1.53808 -7.946778,1.53808 -8.502197,0 -13.586426,-6.53686 -5.041503,-6.57959 -5.041503,-18.11524 0,-6.15234 1.751709,-10.85205 1.794433,-4.74243 4.699707,-7.94678 2.819824,-3.11889 6.622314,-4.82788 3.80249,-1.70898 8.032227,-1.70898 3.845214,0 6.793212,0.85449 2.990723,0.85449 6.066895,2.52075 l 0.512695,-2.05078 7.519532,0 0,65.32593 z m -8.032227,-29.73633 0,-27.00195 q -3.33252,-1.49536 -5.895996,-2.09351 -2.563477,-0.59814 -5.554199,-0.59814 -6.964112,0 -10.595703,4.74243 -3.631592,4.69971 -3.631592,12.98828 0,8.37402 2.905273,12.90283 2.947998,4.48609 9.228516,4.48609 3.503418,0 7.006836,-1.49537 3.503418,-1.53808 6.536865,-3.93066 z" />
      <path
         id="path4923"
         style=""
         d="m 250.94021,254.91397 -12.43286,47.72339 -7.43408,0 -12.26196,-36.78589 -12.17652,36.78589 -7.39136,0 -12.56103,-47.72339 8.37402,0 8.75855,36.95679 11.92016,-36.95679 6.62232,0 12.21924,36.95679 8.28857,-36.95679 8.07495,0 z" />
      <path
         id="path4925"
         style=""
         d="m 383.46609,279.6088 -35.16235,0 q 0,4.40063 1.32446,7.69042 1.32446,3.24708 3.63159,5.34058 2.22168,2.05078 5.25513,3.07617 3.07617,1.02539 6.75049,1.02539 4.8706,0 9.78393,-1.9226 4.95606,-1.96534 7.04956,-3.84522 l 0.42725,0 0,8.75855 q -4.05884,1.70898 -8.28857,2.86255 -4.22974,1.15356 -8.88672,1.15356 -11.87744,0 -18.54248,-6.40869 -6.66504,-6.45142 -6.66504,-18.28613 0,-11.70655 6.36596,-18.58521 6.4087,-6.87866 16.8335,-6.87866 9.65576,0 14.86816,5.63965 5.25513,5.63964 5.25513,16.02173 l 0,4.35791 z m -7.8186,-6.15235 q -0.0427,-6.32324 -3.20435,-9.78393 -3.11889,-3.4607 -9.52759,-3.4607 -6.45141,0 -10.29663,3.80249 -3.80249,3.80249 -4.31518,9.44214 l 27.34375,0 z" />
      <path
         id="path4927"
         style=""
         d="m 526.42166,263.67252 -0.42725,0 q -1.79443,-0.42725 -3.50342,-0.59815 -1.66626,-0.21362 -3.97339,-0.21362 -3.71704,0 -7.17773,1.66626 -3.46069,1.62353 -6.66504,4.22973 l 0,33.88062 -8.03223,0 0,-47.72339 8.03223,0 0,7.04956 q 4.78516,-3.84521 8.41675,-5.42602 3.67432,-1.62354 7.47681,-1.62354 2.0935,0 3.03344,0.12817 0.93994,0.0855 2.81983,0.38453 l 0,8.24585 z" />
      <path
         id="path4929"
         style=""
         d="m 666.84964,302.21011 q -2.26441,0.59815 -4.95606,0.98267 -2.64892,0.38452 -4.74243,0.38452 -7.30591,0 -11.1084,-3.93066 -3.80249,-3.93067 -3.80249,-12.60376 l 0,-25.37842 -5.42602,0 0,-6.75049 5.42602,0 0,-13.7146 8.03223,0 0,13.7146 16.57715,0 0,6.75049 -16.57715,0 0,21.74683 q 0,3.75976 0.1709,5.89599 0.17089,2.09351 1.19629,3.93067 0.93994,1.70898 2.56347,2.52075 1.66626,0.76904 5.04151,0.76904 1.96533,0 4.10156,-0.55542 2.13623,-0.59814 3.07617,-0.98267 l 0.42725,0 0,7.22046 z" />
      <path
         id="path4931"
         style=""
         d="m 815.86282,254.91397 -27.85645,65.32593 -8.58764,0 8.88672,-19.90967 -19.01245,-45.41626 8.71582,0 14.65454,35.37598 14.78271,-35.37598 8.41675,0 z" />
      <path
         id="path4933"
         style=""
         d="m 956.93606,302.63736 -8.03222,0 0,-5.29785 q -4.05884,3.20434 -7.77588,4.91333 -3.71704,1.70898 -8.20313,1.70898 -7.51953,0 -11.70654,-4.57153 -4.18701,-4.61426 -4.18701,-13.50098 l 0,-30.97534 8.03222,0 0,27.17285 q 0,3.63159 0.3418,6.2378 0.3418,2.56347 1.45264,4.40063 1.15356,1.87988 2.99072,2.73438 1.83716,0.85449 5.34058,0.85449 3.11889,0 6.79321,-1.62354 3.71704,-1.62353 6.92139,-4.14428 l 0,-35.63233 8.03222,0 0,47.72339 z" />
      <path
         id="path4935"
         style=""
         d="m 1083.3745,246.92447 -9.0576,0 0,-8.3313 9.0576,0 0,8.3313 z m -0.5127,55.71289 -8.0322,0 0,-47.72339 8.0322,0 0,47.72339 z" />
      <path
         id="path4937"
         style=""
         d="m 1245.1729,278.79703 q 0,11.66382 -5.9815,18.4143 -5.9814,6.75049 -16.0217,6.75049 -10.1257,0 -16.1072,-6.75049 -5.9387,-6.75048 -5.9387,-18.4143 0,-11.66382 5.9387,-18.41431 5.9815,-6.79321 16.1072,-6.79321 10.0403,0 16.0217,6.79321 5.9815,6.75049 5.9815,18.41431 z m -8.2886,0 q 0,-9.27124 -3.6316,-13.75733 -3.6316,-4.52881 -10.083,-4.52881 -6.5369,0 -10.1685,4.52881 -3.5888,4.48609 -3.5888,13.75733 0,8.97217 3.6316,13.62915 3.6316,4.61426 10.1257,4.61426 6.4087,0 10.0403,-4.57154 3.6743,-4.61426 3.6743,-13.67187 z" />
      <path
         id="path4939"
         style=""
         d="m 1388.6468,278.19888 q 0,5.81055 -1.6663,10.63843 -1.6663,4.78516 -4.6997,8.11768 -2.8198,3.16162 -6.6651,4.91333 -3.8024,1.70898 -8.0749,1.70898 -3.717,0 -6.7505,-0.81177 -2.9907,-0.81176 -6.1096,-2.52075 l 0,19.99512 -8.0322,0 0,-65.32593 8.0322,0 0,4.99878 q 3.2043,-2.69165 7.1777,-4.48608 4.0161,-1.83716 8.5449,-1.83716 8.6304,0 13.4156,6.53686 4.8279,6.49414 4.8279,18.07251 z m -8.2886,0.21363 q 0,-8.63037 -2.948,-12.90284 -2.948,-4.27246 -9.0576,-4.27246 -3.4607,0 -6.9641,1.49536 -3.5035,1.49537 -6.7078,3.93067 l 0,27.04468 q 3.418,1.53808 5.8533,2.0935 2.478,0.55542 5.5969,0.55542 6.7077,0 10.4675,-4.52881 3.7598,-4.52881 3.7598,-13.41552 z" />
    </g>
    <g
       id="text4198-3"
       style="font-style:normal;font-variant:normal;font-weight:normal;font-stretch:normal;font-size:87.5px;line-height:125%;font-family:sans-serif;-inkscape-font-specification:'sans-serif, Normal';text-align:start;letter-spacing:94px;word-spacing:0px;writing-mode:lr-tb;text-anchor:start;display:inline;opacity:0.528;fill:#37474f;fill-opacity:1;stroke:none;stroke-width:1px;stroke-linecap:butt;stroke-linejoin:miter;stroke-opacity:1">
      <path
         id="path4961"
         style=""
         d="m 309.444,740.42273 -38.5376,0 0,-5.93872 27.81372,-35.07691 -27.21557,0 0,-6.70776 37.21313,0 0,5.7251 -27.94189,35.20508 28.66821,0 0,6.79321 z" />
      <path
         id="path4963"
         style=""
         d="m 456.12344,740.42273 -10.12573,0 -13.5437,-18.32886 -13.62915,18.32886 -9.35669,0 18.62793,-23.79761 -18.45703,-23.92578 10.12573,0 13.45825,18.02979 13.50098,-18.02979 9.39941,0 -18.7561,23.49854 18.7561,24.22485 z" />
      <path
         id="path4965"
         style=""
         d="m 595.02701,737.43201 q -4.01612,1.9226 -7.64771,2.99072 -3.58886,1.06811 -7.6477,1.06811 -5.16968,0 -9.48487,-1.49536 -4.31518,-1.53808 -7.39135,-4.61425 -3.1189,-3.07618 -4.82788,-7.77588 -1.70899,-4.69971 -1.70899,-10.98023 0,-11.70654 6.40869,-18.37158 6.45142,-6.66504 17.0044,-6.66504 4.10156,0 8.03222,1.15357 3.97339,1.15356 7.26319,2.81982 l 0,8.92944 -0.42725,0 q -3.67431,-2.86255 -7.60498,-4.40063 -3.88794,-1.53809 -7.60498,-1.53809 -6.83594,0 -10.80933,4.61426 -3.93066,4.57153 -3.93066,13.45825 0,8.63037 3.84522,13.28736 3.88794,4.61425 10.89477,4.61425 2.4353,0 4.95606,-0.64087 2.52075,-0.64086 4.5288,-1.66626 1.75171,-0.89721 3.2898,-1.87988 1.53809,-1.02539 2.4353,-1.75171 l 0.42725,0 0,8.844 z" />
      <path
         id="path4967"
         style=""
         d="m 744.22833,692.69934 -19.31152,47.72339 -8.07495,0 -19.18335,-47.72339 8.71582,0 14.78271,37.98218 14.65454,-37.98218 8.41675,0 z" />
      <path
         id="path4969"
         style=""
         d="m 887.0369,716.19788 q 0,5.98144 -1.70899,10.7666 -1.66626,4.78515 -4.52881,8.03222 -3.03344,3.37525 -6.66504,5.08423 -3.63159,1.66626 -7.9895,1.66626 -4.05884,0 -7.09228,-0.98266 -3.03345,-0.93995 -5.98145,-2.56348 l -0.51269,2.22168 -7.51954,0 0,-66.47949 8.03223,0 0,23.75488 q 3.37525,-2.7771 7.17774,-4.52881 3.80249,-1.79443 8.54492,-1.79443 8.45947,0 13.33008,6.49414 4.91333,6.49414 4.91333,18.32886 z m -8.28858,0.21362 q 0,-8.54492 -2.81982,-12.94556 -2.81983,-4.44336 -9.10034,-4.44336 -3.50342,0 -7.09229,1.53809 -3.58887,1.49536 -6.66504,3.88794 l 0,27.34375 q 3.41797,1.53808 5.85327,2.13623 2.47803,0.59814 5.59693,0.59814 6.66504,0 10.4248,-4.35791 3.80249,-4.40063 3.80249,-13.75732 z" />
      <path
         id="path4971"
         style=""
         d="m 1026.46,740.42273 -8.0322,0 0,-27.17285 q 0,-3.2898 -0.3846,-6.15235 -0.3845,-2.90527 -1.4099,-4.5288 -1.0681,-1.79444 -3.0761,-2.64893 -2.0081,-0.89722 -5.2124,-0.89722 -3.2898,0 -6.8787,1.62354 -3.58887,1.62353 -6.87867,4.14429 l 0,35.63232 -8.03222,0 0,-47.72339 8.03222,0 0,5.29785 q 3.75977,-3.11889 7.77587,-4.8706 4.0161,-1.75171 8.2459,-1.75171 7.7331,0 11.792,4.65698 4.0588,4.65698 4.0588,13.41553 l 0,30.97534 z" />
      <path
         id="path4973"
         style=""
         d="m 1187.0974,740.42273 -8.0322,0 0,-27.17285 q 0,-3.07617 -0.2991,-5.93872 -0.2564,-2.86255 -1.1536,-4.57154 -0.9826,-1.83715 -2.8198,-2.7771 -1.8372,-0.93994 -5.2979,-0.93994 -3.3752,0 -6.7504,1.70899 -3.3753,1.66626 -6.7505,4.27246 0.1281,0.98266 0.2136,2.30713 0.085,1.28174 0.085,2.56347 l 0,30.5481 -8.0322,0 0,-27.17285 q 0,-3.16162 -0.2991,-5.98145 -0.2563,-2.86255 -1.1535,-4.57153 -0.9827,-1.83716 -2.8198,-2.73438 -1.8372,-0.93994 -5.2979,-0.93994 -3.2898,0 -6.6223,1.62354 -3.2898,1.62353 -6.5796,4.14429 l 0,35.63232 -8.0322,0 0,-47.72339 8.0322,0 0,5.29785 q 3.7598,-3.11889 7.4768,-4.8706 3.7598,-1.75171 7.9895,-1.75171 4.8706,0 8.2459,2.05078 3.4179,2.05078 5.0842,5.68237 4.8706,-4.10156 8.8867,-5.89599 4.0161,-1.83716 8.5876,-1.83716 7.8614,0 11.5784,4.78515 3.7598,4.74244 3.7598,13.28736 l 0,30.97534 z" />
    </g>
    <rect
       y="896.91443"
       x="390.86392"
       height="61.395119"
       width="658.64789"
       id="rect4218"
       style="display:inline;opacity:1;fill:#d1d6d9;fill-opacity:1;fill-rule:evenodd;stroke:#d1d6d9;stroke-width:34.26480484;stroke-linecap:round;stroke-linejoin:round;stroke-miterlimit:4;stroke-dasharray:none;stroke-opacity:1" />
    <g
       transform="matrix(3.9883682,0,0,3.9883685,1288.879,659.68508)"
       id="g4231"
       style="display:block;opacity:1;fill:#7f8b8f;fill-opacity:1">
      <g
         style="fill:#7f8b8f;fill-opacity:1"
         id="backspace">
        <path
           style="fill:#7f8b8f;fill-opacity:1"
           d="M 22,3 7,3 C 6.3,3 5.8,3.3 5.4,3.9 L 0,12 5.4,20.1 C 5.8,20.6 6.3,21 7,21 l 15,0 c 1.1,0 2,-0.9 2,-2 L 24,5 C 24,3.9 23.1,3 22,3 Z M 19,15.6 17.6,17 14,13.4 10.4,17 9,15.6 12.6,12 9,8.4 10.4,7 14,10.6 17.6,7 19,8.4 15.4,12 19,15.6 Z"
           id="path4223" />
      </g>
    </g>
    <g
       transform="matrix(3.8714998,0,0,3.5556463,143.68263,762.06529)"
       id="g4246"
       style="display:block;opacity:1;fill:#7f8b8f;fill-opacity:1">
      <g
         style="fill:#7f8b8f;fill-opacity:1"
         id="unknown-7">
        <path
           style="fill:#7f8b8f;fill-opacity:1"
           d="m -15.186115,-5.2028058 9.1008227,0 0,-6.5282722 7.7335148,0 -12.2839255,-14.380915 -12.283926,14.380915 7.733514,0 z m -2.937742,12.1321262 15.4356439,-0.035512 0.032615,-2.0604943 -15.5008739,-0.042471 z"
           id="path4238" />
      </g>
    </g>
    <g
       id="text4250"
       style="font-style:normal;font-variant:normal;font-weight:normal;font-stretch:normal;font-size:56.25px;line-height:125%;font-family:Roboto;-inkscape-font-specification:'Roboto, Normal';text-align:start;letter-spacing:0px;word-spacing:0px;writing-mode:lr-tb;text-anchor:start;display:inline;opacity:1;fill:#5b696f;fill-opacity:1;stroke:none;stroke-width:1px;stroke-linecap:butt;stroke-linejoin:miter;stroke-opacity:1">
      <path
         id="path4976"
         style=""
         d="m 58.095119,936.91711 q 0.02747,-1.97753 0.274659,-3.37829 0.247192,-1.40076 0.796508,-2.55432 0.549317,-1.15357 1.428223,-2.22473 0.906372,-1.09864 2.224732,-2.44446 0.933837,-0.96131 1.785278,-1.81275 0.878906,-0.8789 1.51062,-1.78527 0.65918,-0.93384 1.043701,-2.00501 0.384522,-1.07117 0.384522,-2.47192 0,-2.88391 -1.51062,-4.5044 -1.510621,-1.64795 -4.394532,-1.64795 -1.208496,0 -2.334594,0.32959 -1.098633,0.30213 -1.977539,0.98877 -0.851441,0.65918 -1.373292,1.70288 -0.52185,1.01624 -0.52185,2.44446 l -5.081177,0 q 0.02747,-2.33459 0.906372,-4.1748 0.878906,-1.84021 2.389527,-3.10364 1.51062,-1.2909 3.54309,-1.95007 2.059937,-0.68665 4.449463,-0.68665 2.636719,0 4.66919,0.74158 2.059936,0.71411 3.460693,2.0874 1.400757,1.34582 2.114868,3.2959 0.741577,1.92261 0.741577,4.31213 0,1.86768 -0.576782,3.48816 -0.576782,1.62048 -1.565552,3.10364 -0.961303,1.45569 -2.197265,2.77405 -1.235962,1.29089 -2.554321,2.52685 -1.510621,1.40076 -2.032471,3.15857 -0.521851,1.75781 -0.521851,3.79028 l -5.081177,0 z m -0.219726,8.70667 q 0,-1.23596 0.741577,-2.05994 0.769043,-0.85144 2.252197,-0.85144 1.483155,0 2.252198,0.85144 0.769043,0.82398 0.769043,2.05994 0,1.23596 -0.769043,2.05994 -0.769043,0.7965 -2.252198,0.7965 -1.483154,0 -2.252197,-0.7965 -0.741577,-0.82398 -0.741577,-2.05994 z" />
      <path
         id="path4978"
         style=""
         d="m 94.899319,948.1781 -5.108643,0 0,-33.86536 -10.244751,3.76282 0,-4.61426 14.556885,-5.46569 0.796509,0 0,40.18249 z" />
      <path
         id="path4980"
         style=""
         d="m 136.04312,948.1781 -26.2024,0 0,-3.65295 13.1012,-14.55689 q 1.81275,-2.005 2.99378,-3.54309 1.20849,-1.53809 1.89514,-2.80151 0.71411,-1.2909 0.98877,-2.38953 0.27465,-1.1261 0.27465,-2.27966 0,-1.48316 -0.46691,-2.77405 -0.46692,-1.31836 -1.34583,-2.27966 -0.87891,-0.96131 -2.1698,-1.51062 -1.29089,-0.57679 -2.96631,-0.57679 -2.03247,0 -3.54309,0.60425 -1.48315,0.60425 -2.47192,1.67542 -0.98877,1.07116 -1.48316,2.58178 -0.49438,1.48316 -0.49438,3.2959 l -5.08118,0 q 0,-2.52685 0.82398,-4.77905 0.85144,-2.2522 2.49939,-3.92761 1.64795,-1.67542 4.0924,-2.63672 2.44446,-0.98877 5.65796,-0.98877 2.82898,0 5.05371,0.76904 2.2522,0.76905 3.79029,2.19727 1.56555,1.40076 2.38952,3.37829 0.82398,1.97754 0.82398,4.36707 0,1.75781 -0.60425,3.54309 -0.60425,1.78528 -1.62048,3.57056 -1.01624,1.75781 -2.38953,3.51562 -1.37329,1.73035 -2.88391,3.40576 l -10.73914,11.64551 20.07752,0 0,4.14734 z" />
      <path
         id="path4982"
         style=""
         d="m 148.86966,925.71106 3.62548,0 q 1.97754,0 3.4607,-0.52185 1.48315,-0.52185 2.47192,-1.42822 0.98877,-0.93384 1.48316,-2.1698 0.49438,-1.26343 0.49438,-2.74659 0,-3.43322 -1.73035,-5.2185 -1.73034,-1.81275 -5.27343,-1.81275 -1.62049,0 -2.96631,0.49439 -1.31836,0.46692 -2.27967,1.37329 -0.93383,0.87891 -1.45568,2.1698 -0.52185,1.26343 -0.52185,2.82898 l -5.08118,0 q 0,-2.30713 0.8789,-4.31213 0.87891,-2.00501 2.49939,-3.48816 1.62049,-1.51062 3.87269,-2.36206 2.27966,-0.87891 5.05371,-0.87891 2.71911,0 4.94384,0.74158 2.22474,0.71411 3.79029,2.14233 1.59301,1.40076 2.47192,3.51563 0.87891,2.11486 0.87891,4.91638 0,1.1261 -0.38452,2.36206 -0.35706,1.23596 -1.1261,2.41699 -0.74158,1.18103 -1.95008,2.22473 -1.18103,1.01624 -2.82898,1.70288 1.97754,0.63172 3.2959,1.67542 1.34583,1.01623 2.14234,2.27966 0.79651,1.26343 1.1261,2.66419 0.32958,1.40075 0.32958,2.74658 0,2.80151 -0.9613,4.99878 -0.9613,2.1698 -2.66418,3.65295 -1.70288,1.48316 -4.01001,2.27966 -2.30713,0.76905 -5.02625,0.76905 -2.60925,0 -4.91638,-0.71411 -2.30713,-0.74158 -4.03748,-2.14234 -1.73034,-1.42822 -2.74658,-3.48816 -0.98877,-2.0874 -0.98877,-4.75158 l 5.10865,0 q 0,1.56555 0.52185,2.85644 0.52185,1.26343 1.51062,2.19727 0.98877,0.90637 2.38952,1.40075 1.40076,0.49439 3.15857,0.49439 1.75781,0 3.15857,-0.43946 1.40076,-0.46691 2.38953,-1.40075 0.98877,-0.93384 1.51062,-2.3346 0.52185,-1.40075 0.52185,-3.26843 0,-1.86767 -0.60425,-3.24097 -0.60425,-1.37329 -1.73035,-2.25219 -1.09863,-0.90638 -2.66418,-1.34583 -1.56555,-0.43945 -3.51563,-0.43945 l -3.62548,0 0,-4.14734 z" />
    </g>
    <g
       id="text4254"
       style="font-style:normal;font-variant:normal;font-weight:normal;font-stretch:normal;font-size:90px;line-height:125%;font-family:Roboto;-inkscape-font-specification:'Roboto, Normal';text-align:start;letter-spacing:0px;word-spacing:0px;writing-mode:lr-tb;text-anchor:start;display:inline;opacity:1;fill:#5b696f;fill-opacity:1;stroke:none;stroke-width:1px;stroke-linecap:butt;stroke-linejoin:miter;stroke-opacity:1">
      <path
         id="path4985"
         style=""
         d="m 296.09915,956.31189 q 0,1.97754 -0.52734,4.13086 -0.4834,2.15332 -1.49414,4.26269 -0.9668,2.10938 -2.37305,4.04297 -1.40625,1.9336 -3.25195,3.42774 l -4.61426,-3.16407 q 2.06543,-2.90039 3.16406,-5.97656 1.14258,-3.03222 1.14258,-6.59179 l 0,-6.63575 7.9541,0 0,6.50391 z" />
    </g>
    <g
       id="text4276"
       style="font-style:normal;font-variant:normal;font-weight:normal;font-stretch:normal;font-size:90px;line-height:125%;font-family:Roboto;-inkscape-font-specification:'Roboto, Normal';text-align:start;letter-spacing:0px;word-spacing:0px;writing-mode:lr-tb;text-anchor:start;display:inline;opacity:1;fill:#5b696f;fill-opacity:1;stroke:none;stroke-width:1px;stroke-linecap:butt;stroke-linejoin:miter;stroke-opacity:1">
      <path
         id="path4988"
         style=""
         d="m 1144.8193,955.12628 q 0,-2.10937 1.2305,-3.51562 1.2744,-1.40625 3.7793,-1.40625 2.5049,0 3.7793,1.40625 1.3184,1.40625 1.3184,3.51562 0,2.02149 -1.3184,3.38379 -1.2744,1.36231 -3.7793,1.36231 -2.5049,0 -3.7793,-1.36231 -1.2305,-1.3623 -1.2305,-3.38379 z" />
    </g>
    <path
       d="m 1408.9653,928.15784 a 74.751289,74.751289 0 0 1 -74.6442,74.75116 74.751289,74.751289 0 0 1 -74.8581,-74.5369 74.751289,74.751289 0 0 1 74.4296,-74.96486 74.751289,74.751289 0 0 1 75.0715,74.32207"
       id="path4322"
       style="display:inline;opacity:0.83600003;fill:#4db6ac;fill-opacity:1;fill-rule:evenodd;stroke:none;stroke-width:30;stroke-linecap:round;stroke-linejoin:round;stroke-miterlimit:4;stroke-dasharray:none;stroke-opacity:1" />
    <g
       style="display:inline;opacity:1;fill:#ffffff;fill-opacity:1;stroke:none"
       transform="matrix(0.14853022,0,0,0.15632743,1294.8712,889.5622)"
       id="g4328">
      <title
         id="title4330">Layer 1</title>
      <g
         style="clip-rule:nonzero;fill:#ffffff;fill-opacity:1;fill-rule:nonzero;stroke:none;stroke-miterlimit:4"
         id="Vrstva_x0020_1"
         stroke-miterlimit="4">
        <g
           style="clip-rule:evenodd;fill:#ffffff;fill-opacity:1;fill-rule:evenodd;stroke:none"
           id="g3470">
          <path
             style="fill:#ffffff;fill-opacity:1;stroke:none"
             d="m 324.29457,269.99764 c -5.59179,8.17188 -6.88178,13.29579 -16.18012,21.87001 -9.29834,8.57422 -17.83963,16.55078 -25.02908,20.46387 l 153.02702,147.70576 38.82901,-34.36029 z"
             id="path3472" />
          <path
             style="fill:#ffffff;fill-opacity:1;stroke:none"
             d="m 305.28415,77.694504 c -65.17578,-60.077677 -169.79102,-60.077677 -234.966332,0 -65.150872,60.100506 -65.150872,156.570236 0,216.671306 65.175312,60.10059 169.790552,60.10059 234.966332,0 65.17578,-60.10107 65.17578,-156.5708 0,-216.671306 z m -34.19824,31.535146 c -46.2041,-42.606931 -120.39063,-42.606931 -166.57033,0 -46.204591,42.58343 -46.204591,110.99407 0,153.60101 46.1797,42.60644 120.36623,42.60644 166.57033,0 46.20508,-42.60693 46.20508,-111.01758 0,-153.60101 z"
             id="path3474" />
        </g>
      </g>
    </g>
    <rect
       y="8.8360434"
       x="1.112445"
       height="155.72604"
       width="1440.0001"
       id="rect4351"
       style="display:inline;opacity:1;fill:#ebe9ef;fill-opacity:1;fill-rule:evenodd;stroke:none;stroke-width:30;stroke-linecap:round;stroke-linejoin:round;stroke-miterlimit:4;stroke-dasharray:none;stroke-opacity:1" />
    <g
       transform="matrix(3.969925,0,0,3.9699253,1320.6172,33.586386)"
       id="g4291"
       style="display:block;opacity:1;fill:#6d717a;fill-opacity:1">
      <g
         style="fill:#6d717a;fill-opacity:1"
         id="mic">
        <path
           style="fill:#6d717a;fill-opacity:1"
           d="m 12,15 c 1.7,0 3,-1.3 3,-3 L 15,6 C 15,4.3 13.7,3 12,3 10.3,3 9,4.3 9,6 l 0,6 c 0,1.7 1.3,3 3,3 z m 5.3,-3 c 0,3 -2.5,5.1 -5.3,5.1 C 9.2,17.1 6.7,15 6.7,12 L 5,12 c 0,3.4 2.7,6.2 6,6.7 l 0,3.3 2,0 0,-3.3 c 3.3,-0.5 6,-3.3 6,-6.7 l -1.7,0 z"
           id="path4283" />
      </g>
    </g>
    <path
       id="path4389"
       d="m 925.78637,46.755483 0.0682,0.126644 -0.005,83.969653 -0.13102,-83.969551 0.068,-0.126746 z"
       style="display:inline;fill:none;fill-opacity:1;fill-rule:evenodd;stroke:#d1d6d9;stroke-width:2;stroke-linecap:square;stroke-linejoin:bevel;stroke-miterlimit:0;stroke-dasharray:none;stroke-opacity:1" />
    <path
       id="path4389-6"
       d="m 924.14287,46.755883 0.0682,0.126644 -0.005,83.969653 -0.13102,-83.969551 0.068,-0.126746 z"
       style="display:inline;fill:none;fill-opacity:1;fill-rule:evenodd;stroke:#ffffff;stroke-width:1;stroke-linecap:square;stroke-linejoin:miter;stroke-miterlimit:0;stroke-dasharray:none;stroke-opacity:1" />
    <path
       id="path4389-1"
       d="m 511.46133,46.692383 0.0682,0.126644 -0.005,83.969653 -0.13112,-83.969551 0.068,-0.126746 z"
       style="display:inline;fill:none;fill-opacity:1;fill-rule:evenodd;stroke:#d1d6d9;stroke-width:2;stroke-linecap:square;stroke-linejoin:miter;stroke-miterlimit:0;stroke-dasharray:none;stroke-opacity:1" />
    <path
       id="path4389-6-2"
       d="m 509.94408,46.692783 0.0682,0.126644 -0.005,83.969653 -0.13112,-83.969551 0.068,-0.126746 z"
       style="display:inline;fill:none;fill-opacity:1;fill-rule:evenodd;stroke:#ffffff;stroke-width:1;stroke-linecap:square;stroke-linejoin:miter;stroke-miterlimit:0;stroke-dasharray:none;stroke-opacity:1" />
  </g>
</svg>
