<!-- Created by Keith Pinson with Inkscape (http://www.inkscape.org/) -->
<svg xmlns:rdf="http://www.w3.org/1999/02/22-rdf-syntax-ns#" xmlns="http://www.w3.org/2000/svg" viewBox="0 0 1440.0001 1045" height="1045" width="1440" version="1.1" xmlns:cc="http://creativecommons.org/ns#" xmlns:dc="http://purl.org/dc/elements/1.1/">
 <g transform="translate(0 -7.3621)">
  <path d="m1.1127 164.36h1440v889.21h-1440z" fill-rule="evenodd" fill="#eceff1"/>
  <g fill="#6d797f">
   <path style="" d="m125.04 225.25h-6.6016v-21.016l-6.4844 1.8945v-5l12.48-4.3164h0.60547v28.438z"/>
   <path style="" d="m273.5 225.25h-19.844v-4.2969l9.1406-9.6094q1.8164-2.0703 2.5977-3.5352 0.78125-1.4844 0.78125-2.5781 0-1.8359-0.80079-2.793-0.80078-0.95703-2.3242-0.95703-0.76172 0-1.3867 0.35156-0.625 0.33204-1.0742 0.9375-0.42969 0.60547-0.6836 1.4258-0.23437 0.80078-0.23437 1.7578h-6.6016q0-1.9531 0.72265-3.6914 0.74219-1.7383 2.0703-3.0469 1.3476-1.3086 3.2031-2.0508 1.875-0.76172 4.1406-0.76172 2.3633 0 4.1406 0.5664 1.7969 0.54688 3.0078 1.6016t1.8164 2.5976q0.625 1.5234 0.625 3.4766 0 1.4844-0.46875 2.8516-0.46875 1.3476-1.3477 2.6953-0.8789 1.3477-2.1484 2.7539t-2.8516 2.9883l-3.6719 4.2383h11.191v5.0781z"/>
   <path style="" d="m402.88 208.28h3.2031q1.8359 0 2.7148-0.95703 0.87891-0.97657 0.87891-2.6562 0-0.64454-0.21484-1.2109-0.19532-0.58594-0.60547-1.0156-0.41016-0.44922-1.0547-0.70312-0.625-0.25391-1.4844-0.25391-0.60546 0-1.1914 0.19531-0.56641 0.17579-1.0352 0.52735-0.44922 0.33203-0.74219 0.82031-0.27343 0.48828-0.27343 1.1133h-6.582q0-1.8164 0.78125-3.2422 0.78125-1.4453 2.1094-2.4414 1.3281-0.9961 3.0469-1.5234 1.7383-0.52734 3.6523-0.52734 2.2656 0 4.1406 0.52734t3.2031 1.5625q1.3477 1.0156 2.0898 2.5391 0.74219 1.5039 0.74219 3.4961 0 0.97656-0.3125 1.875-0.3125 0.89843-0.87891 1.6992-0.5664 0.78125-1.3867 1.4258-0.82032 0.64453-1.8164 1.1133 2.2656 0.82031 3.5547 2.5 1.2891 1.6602 1.2891 4.1211 0 1.9922-0.82031 3.5547-0.80078 1.5625-2.2266 2.6367t-3.3789 1.6406q-1.9336 0.54688-4.1992 0.54688-1.1914 0-2.4023-0.21485-1.1914-0.21484-2.3047-0.64453-1.1133-0.42968-2.0898-1.0938-0.97656-0.68359-1.6992-1.6016-0.70313-0.9375-1.1328-2.1094-0.41015-1.1719-0.41015-2.6367h6.6211q0 0.68359 0.29297 1.2695 0.29297 0.58594 0.78125 1.0352 0.50781 0.42969 1.1719 0.6836 0.66407 0.23437 1.4062 0.23437 0.89844 0 1.6016-0.2539 0.72265-0.27344 1.2109-0.74219 0.48829-0.46875 0.74219-1.0938 0.25391-0.625 0.25391-1.3477 0-2.1484-1.0742-3.0469-1.0742-0.89844-2.9688-0.89844h-3.2031v-4.9023z"/>
   <path style="" d="m557.45 214.14h2.8906v5.0781h-2.8906v6.0352h-6.582v-6.0352h-10.996l-0.39062-4.0234 11.387-18.32v-0.0586h6.582v17.324zm-11.699 0h5.1172v-8.75l-0.41016 0.66406-4.707 8.0859z"/>
   <path style="" d="m683.66 211.35 1.7383-14.531h16.621v5.1172h-11.27l-0.64453 5.6445q0.23437-0.13672 0.64453-0.3125 0.41015-0.17578 0.95703-0.33203 0.54687-0.17578 1.1719-0.27344 0.625-0.11718 1.3086-0.11718 2.1094 0 3.75 0.64453 1.6406 0.625 2.7539 1.8555 1.1133 1.2109 1.6992 2.9883 0.58594 1.7773 0.58594 4.0625 0 1.8359-0.60547 3.5547-0.58594 1.7188-1.7969 3.0664-1.2109 1.3281-3.0664 2.1289-1.8555 0.80078-4.3945 0.80078-1.9141 0-3.7305-0.58594-1.7969-0.58594-3.2031-1.6797-1.4062-1.1133-2.2461-2.6758-0.83984-1.5625-0.82031-3.5352h6.6016q0.0977 1.5625 0.9961 2.4805 0.89843 0.91797 2.3633 0.91797 0.97656 0 1.6211-0.39062 0.64453-0.39063 1.0156-1.0547 0.39062-0.68359 0.52734-1.582 0.15625-0.89844 0.15625-1.8945 0-1.0547-0.23438-1.8945-0.23437-0.83985-0.72265-1.4258-0.48828-0.58594-1.2695-0.89844-0.76172-0.33203-1.8359-0.33203-0.70313 0-1.2695 0.13672-0.54688 0.13671-0.97656 0.35156-0.41016 0.21484-0.70313 0.48828-0.29297 0.25391-0.48828 0.50781l-5.2344-1.2305z"/>
   <path style="" d="m842.37 196.41v5.1758h-0.37109q-1.6797 0-3.1641 0.41015-1.4844 0.41016-2.6758 1.25-1.1719 0.82032-1.9726 2.0703-0.80078 1.25-1.0938 2.9492 0.99609-0.97657 2.3828-1.582 1.4062-0.60546 3.2422-0.60546 1.9531 0 3.457 0.76171 1.5039 0.74219 2.5195 2.0703 1.0352 1.3086 1.5625 3.0859 0.52734 1.7774 0.52734 3.8477 0 2.0898-0.74218 3.8867-0.74219 1.7773-2.0703 3.1055-1.3086 1.3086-3.1445 2.0703-1.8164 0.74219-3.9844 0.74219-2.2461 0-4.1797-0.76172-1.9141-0.78125-3.3203-2.2461-1.4062-1.4844-2.207-3.6133-0.78125-2.1289-0.78125-4.8242v-2.4024q0-2.4414 0.54687-4.5117 0.56641-2.0898 1.5625-3.7891 0.9961-1.7188 2.3828-3.0273 1.3867-1.3281 3.0469-2.2266 1.6602-0.89843 3.5352-1.3672 1.875-0.46875 3.8672-0.46875h1.0742zm-5.9375 14.707q-1.3086 0-2.1875 0.60547t-1.3086 1.4844v1.9727q0 2.7539 0.9375 4.082 0.95703 1.3086 2.793 1.3086 0.76172 0 1.4062-0.35156 0.64453-0.37109 1.1133-0.99609 0.46875-0.64453 0.72265-1.5039 0.27344-0.85937 0.27344-1.875 0-1.0938-0.29297-1.9727-0.27343-0.8789-0.78125-1.4844-0.48828-0.625-1.1719-0.9375-0.6836-0.33203-1.5039-0.33203z"/>
   <path style="" d="m989.44 200.33-10.625 24.922h-6.9531l10.645-23.359h-13.555v-5.0781h20.488v3.5156z"/>
   <path style="" d="m1132.1 204.41q0 2.0703-1.0352 3.6523-1.0156 1.582-2.8125 2.5391 2.0313 0.99609 3.2227 2.7344 1.1914 1.7188 1.1914 4.082 0 2.0508-0.7422 3.5938-0.7422 1.5234-2.0508 2.5586t-3.125 1.5625q-1.8164 0.50781-3.9453 0.50781-2.1484 0-3.9844-0.50781-1.8164-0.52735-3.1445-1.5625t-2.0898-2.5586q-0.7618-1.543-0.7618-3.5938 0-1.1719 0.3125-2.207 0.3125-1.0352 0.8985-1.8945 0.5859-0.85938 1.4062-1.543 0.8399-0.68359 1.875-1.1719-1.8164-0.95704-2.8515-2.5391-1.0352-1.582-1.0352-3.6523 0-1.9531 0.6836-3.4375 0.7031-1.5039 1.9336-2.5195 1.25-1.0156 2.9492-1.5234 1.7188-0.52734 3.75-0.52734 2.0508 0 3.7696 0.52734 1.7187 0.50781 2.9492 1.5234 1.25 1.0156 1.9336 2.5195 0.7031 1.4844 0.7031 3.4375zm-6.0352 12.48q0-1.7578-0.9179-2.6953-0.8985-0.95704-2.3828-0.95704-1.4844 0-2.4024 0.95704-0.918 0.9375-0.918 2.6953 0 0.85937 0.2344 1.543 0.2539 0.68359 0.6836 1.1523 0.4492 0.46875 1.0742 0.72266 0.625 0.2539 1.3672 0.2539 1.4649 0 2.3633-0.97656t0.8984-2.6953zm-0.5664-12.129q0-1.5234-0.7031-2.4023-0.6836-0.87891-2.0508-0.87891-1.3281 0-2.0312 0.87891-0.6836 0.85937-0.6836 2.4023 0 1.5234 0.7031 2.4609t2.0703 0.9375q1.3477 0 2.0117-0.9375 0.6836-0.9375 0.6836-2.4609z"/>
   <path style="" d="m1260.6 220.37q1.7579 0 3.2032-0.33203 1.4453-0.35156 2.5195-1.0742 1.0937-0.74219 1.7773-1.8945 0.6836-1.1719 0.8985-2.8125-0.9766 0.87891-2.2071 1.4062-1.2109 0.50781-2.5585 0.50781-1.9336 0-3.4961-0.68359-1.5625-0.6836-2.6563-1.9336-1.0742-1.2695-1.6601-3.0469-0.586-1.7773-0.586-3.9453 0-2.0703 0.7227-3.9258 0.7422-1.8555 2.0508-3.2227 1.3281-1.3867 3.1445-2.1875 1.8164-0.82031 3.9844-0.82031 2.0507 0 3.8476 0.78125 1.8164 0.76172 3.1641 2.2461 1.3672 1.4844 2.1484 3.6523 0.7813 2.168 0.7813 4.9609v2.2656q0 3.7891-1.1524 6.6602-1.1523 2.8711-3.1836 4.8047-2.0117 1.9141-4.7461 2.8906-2.7343 0.97656-5.8984 0.97656h-0.5078v-5.2734h0.4101zm5.4102-8.9453q1.1719 0 1.9336-0.52735 0.7617-0.54687 1.1523-1.3281v-2.7344q0-2.7344-0.9179-4.043-0.918-1.3086-2.4805-1.3086-0.7813 0-1.3867 0.44922-0.6055 0.44922-1.0352 1.1719-0.4101 0.72265-0.625 1.6406-0.2148 0.89844-0.2148 1.8164 0 1.0352 0.2148 1.9336 0.2344 0.87891 0.6836 1.543 0.4492 0.64453 1.1133 1.0156 0.6641 0.3711 1.5625 0.3711z"/>
   <path style="" d="m1419 213.63q0 3.0859-0.7226 5.3516-0.7227 2.2461-2.0313 3.7305t-3.125 2.207q-1.8164 0.72266-4.0039 0.72266-2.207 0-4.0429-0.72266-1.8164-0.72265-3.125-2.207t-2.0508-3.7305q-0.7227-2.2656-0.7227-5.3516v-5.1953q0-3.0664 0.7227-5.332 0.7226-2.2656 2.0312-3.75t3.125-2.207q1.8164-0.72265 4.0235-0.72265 2.1875 0 4.0039 0.72265 1.8359 0.72266 3.1445 2.207 1.3086 1.4844 2.0313 3.75 0.7421 2.2656 0.7421 5.332v5.1953zm-6.582-6.0352q0-1.6992-0.2344-2.8516-0.2343-1.1719-0.664-1.8945-0.4297-0.72266-1.0547-1.0352-0.6055-0.3125-1.3867-0.3125-0.7813 0-1.4063 0.3125-0.6054 0.3125-1.0351 1.0352-0.4102 0.72266-0.6446 1.8945-0.2148 1.1523-0.2148 2.8516v6.8359q0 1.7383 0.2148 2.9102 0.2344 1.1719 0.6641 1.8945 0.4297 0.70312 1.0547 1.0156 0.625 0.3125 1.4062 0.3125 0.7618 0 1.3672-0.3125 0.625-0.3125 1.0547-1.0156 0.4297-0.72266 0.6445-1.8945 0.2344-1.1719 0.2344-2.9102v-6.8359z"/>
  </g>
  <g opacity="0.523" fill="#37474f">
   <path style="" d="m166.01 522.08h-7.9895v-5.0842q-1.0681 0.72632-2.9053 2.0508-1.7944 1.2817-3.5034 2.0508-2.008 0.98266-4.6142 1.6235-2.6062 0.6836-6.1096 0.6836-6.4514 0-10.938-4.2725-4.4861-4.2725-4.4861-10.895 0-5.426 2.3071-8.7586 2.3498-3.3752 6.665-5.2978 4.3579-1.9226 10.468-2.6062 6.1096-0.68359 13.116-1.0254v-1.239q0-2.7344-0.98266-4.5288-0.93994-1.7944-2.7344-2.8198-1.709-0.98266-4.1016-1.3245-2.3926-0.3418-4.9988-0.3418-3.1616 0-7.0496 0.8545-3.8879 0.81176-8.0322 2.3926h-0.42724v-8.1604q2.3498-0.64086 6.7932-1.4099t8.7586-0.76904q5.0415 0 8.7585 0.85449 3.7598 0.81177 6.4941 2.8198 2.6916 1.9653 4.1016 5.0842 1.4099 3.1189 1.4099 7.7332v32.385zm-7.9895-11.749v-13.287q-3.6743 0.21362-8.6731 0.64087-4.9561 0.42725-7.8613 1.239-3.4607 0.98267-5.5969 3.0762-2.1362 2.0508-2.1362 5.6824 0 4.1016 2.478 6.1951 2.478 2.0508 7.5623 2.0508 4.2297 0 7.7332-1.6235 3.5034-1.6663 6.4941-3.9734z"/>
   <path style="" d="m309.66 508.32q0 6.5369-5.426 10.724-5.3833 4.187-14.74 4.187-5.2978 0-9.7412-1.239-4.4006-1.2817-7.3914-2.7771v-9.0149h0.42724q3.8025 2.8626 8.4595 4.5715 4.657 1.6663 8.9294 1.6663 5.2978 0 8.2886-1.709 2.9907-1.709 2.9907-5.3833 0-2.8198-1.6235-4.2725-1.6235-1.4526-6.2378-2.478-1.709-0.38452-4.4861-0.89722-2.7344-0.51269-4.9988-1.1108-6.2805-1.6663-8.9294-4.8706-2.6062-3.2471-2.6062-7.9468 0-2.948 1.1963-5.5542 1.239-2.6062 3.717-4.657 2.3926-2.0081 6.0669-3.1616 3.717-1.1963 8.2886-1.1963 4.2725 0 8.6304 1.0681 4.4006 1.0254 7.3059 2.5208v8.5876h-0.42725q-3.0762-2.2644-7.4768-3.8025-4.4006-1.5808-8.6304-1.5808-4.4006 0-7.4341 1.709-3.0334 1.6663-3.0334 4.9988 0 2.948 1.8372 4.4434 1.7944 1.4954 5.8105 2.4353 2.2217 0.51269 4.9561 1.0254 2.7771 0.51269 4.6142 0.93994 5.5969 1.2817 8.6304 4.4006 3.0334 3.1616 3.0334 8.374z"/>
   <path style="" d="m453.9 522.08h-8.0322v-4.9988q-3.4607 2.9907-7.2205 4.657t-8.1604 1.6663q-8.5449 0-13.586-6.5796-4.9988-6.5796-4.9988-18.243 0-6.0669 1.709-10.809 1.7517-4.7424 4.6997-8.075 2.9053-3.2471 6.7505-4.956 3.8879-1.709 8.0322-1.709 3.7598 0 6.665 0.81177 2.9053 0.76904 6.1096 2.4353v-20.679h8.0322v66.479zm-8.0322-11.749v-27.386q-3.2471-1.4526-5.8106-2.0081-2.5635-0.55542-5.5969-0.55542-6.7505 0-10.51 4.6997-3.7598 4.6997-3.7598 13.33 0 8.5022 2.9053 12.946 2.9053 4.4006 9.314 4.4006 3.418 0 6.9214-1.4954 3.5034-1.5381 6.5369-3.9307z"/>
   <path style="" d="m595.39 463.38h-0.42725q-1.3245-0.38452-3.4607-0.76904-2.1362-0.42725-3.7598-0.42725-5.1697 0-7.5195 2.3071-2.3071 2.2644-2.3071 8.2458v1.6235h14.484v6.7505h-14.227v40.973h-8.0322v-40.973h-5.426v-6.7505h5.426v-1.5808q0-8.5022 4.2297-13.031 4.2297-4.5715 12.219-4.5715 2.6916 0 4.8279 0.25635 2.179 0.25635 3.9734 0.59815v7.3486z"/>
   <path style="" d="m739.18 516.66q0 12.134-5.5115 17.816-5.5115 5.6824-16.962 5.6824-3.8025 0-7.4341-0.55542-3.5889-0.51269-7.0923-1.4954v-8.2031h0.42725q1.9653 0.76904 6.2378 1.8799 4.2725 1.1536 8.5449 1.1536 4.1016 0 6.7932-0.98266 2.6916-0.98267 4.187-2.7344 1.4954-1.6663 2.1362-4.0161 0.64087-2.3498 0.64087-5.2551v-4.3579q-3.6316 2.9053-6.9641 4.3579-3.2898 1.4099-8.4168 1.4099-8.5449 0-13.586-6.1523-4.9988-6.1951-4.9988-17.432 0-6.1523 1.709-10.596 1.7517-4.4861 4.7424-7.7332 2.7771-3.0334 6.7505-4.6997 3.9734-1.709 7.904-1.709 4.1443 0 6.9214 0.85449 2.8198 0.81177 5.9387 2.5208l0.51269-2.0508h7.5195v42.297zm-8.0322-7.6904v-26.019q-3.2044-1.4526-5.9814-2.0508-2.7344-0.64087-5.4688-0.64087-6.6223 0-10.425 4.4434-3.8025 4.4434-3.8025 12.903 0 8.0322 2.8198 12.177 2.8198 4.1443 9.3567 4.1443 3.5034 0 7.0068-1.3245 3.5461-1.3672 6.4941-3.6316z"/>
   <path style="" d="m885.7 522.08h-8.0322v-27.173q0-3.2898-0.38453-6.1523-0.38452-2.9053-1.4099-4.5288-1.0681-1.7944-3.0762-2.6489-2.0081-0.89721-5.2124-0.89721-3.2898 0-6.8787 1.6235t-6.8787 4.1443v35.632h-8.0322v-66.479h8.0322v24.054q3.7598-3.1189 7.7759-4.8706t8.2458-1.7517q7.7332 0 11.792 4.657t4.0588 13.416v30.975z"/>
   <path style="" d="m1010 466.37h-9.0576v-8.3313h9.0576v8.3313zm-0.5127 56.866q0 8.374-4.2724 12.646-4.2725 4.2725-11.45 4.2725-1.709 0-4.5288-0.34179-2.7771-0.3418-4.657-0.8545v-7.6477h0.42725q1.1963 0.46997 3.2043 1.0681 2.0508 0.59815 3.9734 0.59815 3.0762 0 4.9561-0.85449 1.8799-0.8545 2.8198-2.5635 0.93994-1.709 1.1963-4.1443 0.299-2.3926 0.299-5.8533v-38.452h-9.9548v-6.7505h17.987v48.877z"/>
   <path style="" d="m1177 522.08h-10.596l-19.141-20.892-5.2124 4.956v15.936h-8.0323v-66.479h8.0323v42.639l23.199-23.883h10.126l-22.174 22.046 23.798 25.677z"/>
   <path style="" d="m1297.6 522.08h-8.0322v-66.479h8.0322v66.479z"/>
  </g>
  <g opacity=".528" fill="#37474f">
   <path style="" d="m94.104 320.24h-8.0322v-22.986q-3.717 3.2043-7.3914 4.7852-3.6743 1.5381-7.9468 1.5381-8.5022 0-13.586-6.5369-5.0415-6.5796-5.0415-18.115 0-6.1523 1.7517-10.852 1.7944-4.7424 4.6997-7.9468 2.8198-3.1189 6.6223-4.8279t8.0322-1.709q3.8452 0 6.7932 0.85449 2.9907 0.85449 6.0669 2.5208l0.5127-2.0508h7.5195v65.326zm-8.0322-29.736v-27.002q-3.3325-1.4954-5.896-2.0935-2.5635-0.59814-5.5542-0.59814-6.9641 0-10.596 4.7424-3.6316 4.6997-3.6316 12.988 0 8.374 2.9053 12.903 2.948 4.4861 9.2285 4.4861 3.5034 0 7.0068-1.4954 3.5034-1.5381 6.5369-3.9307z"/>
   <path style="" d="m250.94 254.91-12.433 47.723h-7.4341l-12.262-36.786-12.177 36.786h-7.3914l-12.561-47.723h8.374l8.7586 36.957 11.92-36.957h6.6223l12.219 36.957 8.2886-36.957h8.075z"/>
   <path style="" d="m383.47 279.61h-35.162q0 4.4006 1.3245 7.6904 1.3245 3.2471 3.6316 5.3406 2.2217 2.0508 5.2551 3.0762 3.0762 1.0254 6.7505 1.0254 4.8706 0 9.7839-1.9226 4.9561-1.9653 7.0496-3.8452h0.42725v8.7586q-4.0588 1.709-8.2886 2.8626-4.2297 1.1536-8.8867 1.1536-11.877 0-18.542-6.4087-6.665-6.4514-6.665-18.286 0-11.707 6.366-18.585 6.4087-6.8787 16.834-6.8787 9.6558 0 14.868 5.6396 5.2551 5.6396 5.2551 16.022v4.3579zm-7.8186-6.1524q-0.0427-6.3232-3.2044-9.7839-3.1189-3.4607-9.5276-3.4607-6.4514 0-10.297 3.8025-3.8025 3.8025-4.3152 9.4421h27.344z"/>
   <path style="" d="m526.42 263.67h-0.42725q-1.7944-0.42725-3.5034-0.59815-1.6663-0.21362-3.9734-0.21362-3.717 0-7.1777 1.6663-3.4607 1.6235-6.665 4.2297v33.881h-8.0322v-47.723h8.0322v7.0496q4.7852-3.8452 8.4168-5.426 3.6743-1.6235 7.4768-1.6235 2.0935 0 3.0334 0.12817 0.93994 0.0855 2.8198 0.38453v8.2458z"/>
   <path style="" d="m666.85 302.21q-2.2644 0.59815-4.9561 0.98267-2.6489 0.38452-4.7424 0.38452-7.3059 0-11.108-3.9307-3.8025-3.9307-3.8025-12.604v-25.378h-5.426v-6.7505h5.426v-13.715h8.0322v13.715h16.577v6.7505h-16.577v21.747q0 3.7598 0.1709 5.896 0.17089 2.0935 1.1963 3.9307 0.93994 1.709 2.5635 2.5208 1.6663 0.76904 5.0415 0.76904 1.9653 0 4.1016-0.55542 2.1362-0.59814 3.0762-0.98267h0.42725v7.2205z"/>
   <path style="" d="m815.86 254.91-27.856 65.326h-8.5876l8.8867-19.91-19.012-45.416h8.7158l14.655 35.376 14.783-35.376h8.4168z"/>
   <path style="" d="m956.94 302.64h-8.0322v-5.2978q-4.0588 3.2043-7.7759 4.9133-3.717 1.709-8.2031 1.709-7.5195 0-11.707-4.5715-4.187-4.6143-4.187-13.501v-30.975h8.0322v27.173q0 3.6316 0.3418 6.2378 0.3418 2.5635 1.4526 4.4006 1.1536 1.8799 2.9907 2.7344 1.8372 0.85449 5.3406 0.85449 3.1189 0 6.7932-1.6235 3.717-1.6235 6.9214-4.1443v-35.632h8.0322v47.723z"/>
   <path style="" d="m1083.4 246.92h-9.0576v-8.3313h9.0576v8.3313zm-0.5127 55.713h-8.0322v-47.723h8.0322v47.723z"/>
   <path style="" d="m1245.2 278.8q0 11.664-5.9815 18.414-5.9814 6.7505-16.022 6.7505-10.126 0-16.107-6.7505-5.9387-6.7505-5.9387-18.414t5.9387-18.414q5.9815-6.7932 16.107-6.7932 10.04 0 16.022 6.7932 5.9815 6.7505 5.9815 18.414zm-8.2886 0q0-9.2712-3.6316-13.757-3.6316-4.5288-10.083-4.5288-6.5369 0-10.168 4.5288-3.5888 4.4861-3.5888 13.757 0 8.9722 3.6316 13.629 3.6316 4.6143 10.126 4.6143 6.4087 0 10.04-4.5715 3.6743-4.6143 3.6743-13.672z"/>
   <path style="" d="m1388.6 278.2q0 5.8106-1.6663 10.638-1.6663 4.7852-4.6997 8.1177-2.8198 3.1616-6.6651 4.9133-3.8024 1.709-8.0749 1.709-3.717 0-6.7505-0.81177-2.9907-0.81176-6.1096-2.5208v19.995h-8.0322v-65.326h8.0322v4.9988q3.2043-2.6916 7.1777-4.4861 4.0161-1.8372 8.5449-1.8372 8.6304 0 13.416 6.5369 4.8279 6.4941 4.8279 18.073zm-8.2886 0.21363q0-8.6304-2.948-12.903-2.948-4.2725-9.0576-4.2725-3.4607 0-6.9641 1.4954-3.5035 1.4954-6.7078 3.9307v27.045q3.418 1.5381 5.8533 2.0935 2.478 0.55542 5.5969 0.55542 6.7077 0 10.468-4.5288 3.7598-4.5288 3.7598-13.416z"/>
  </g>
  <g opacity=".528" fill="#37474f">
   <path style="" d="m309.44 740.42h-38.538v-5.9387l27.814-35.077h-27.216v-6.7078h37.213v5.7251l-27.942 35.205h28.668v6.7932z"/>
   <path style="" d="m456.12 740.42h-10.126l-13.544-18.329-13.629 18.329h-9.3567l18.628-23.798-18.457-23.926h10.126l13.458 18.03 13.501-18.03h9.3994l-18.756 23.499 18.756 24.225z"/>
   <path style="" d="m595.03 737.43q-4.0161 1.9226-7.6477 2.9907-3.5889 1.0681-7.6477 1.0681-5.1697 0-9.4849-1.4954-4.3152-1.5381-7.3914-4.6142-3.1189-3.0762-4.8279-7.7759t-1.709-10.98q0-11.707 6.4087-18.372 6.4514-6.665 17.004-6.665 4.1016 0 8.0322 1.1536 3.9734 1.1536 7.2632 2.8198v8.9294h-0.42725q-3.6743-2.8626-7.605-4.4006-3.8879-1.5381-7.605-1.5381-6.8359 0-10.809 4.6143-3.9307 4.5715-3.9307 13.458 0 8.6304 3.8452 13.287 3.8879 4.6142 10.895 4.6142 2.4353 0 4.9561-0.64087 2.5208-0.64086 4.5288-1.6663 1.7517-0.89721 3.2898-1.8799 1.5381-1.0254 2.4353-1.7517h0.42725v8.844z"/>
   <path style="" d="m744.23 692.7-19.312 47.723h-8.075l-19.183-47.723h8.7158l14.783 37.982 14.655-37.982h8.4168z"/>
   <path style="" d="m887.04 716.2q0 5.9814-1.709 10.767-1.6663 4.7852-4.5288 8.0322-3.0334 3.3752-6.665 5.0842-3.6316 1.6663-7.9895 1.6663-4.0588 0-7.0923-0.98266-3.0334-0.93995-5.9814-2.5635l-0.51269 2.2217h-7.5195v-66.479h8.0322v23.755q3.3752-2.7771 7.1777-4.5288 3.8025-1.7944 8.5449-1.7944 8.4595 0 13.33 6.4941 4.9133 6.4941 4.9133 18.329zm-8.2886 0.21362q0-8.5449-2.8198-12.946-2.8198-4.4434-9.1003-4.4434-3.5034 0-7.0923 1.5381-3.5889 1.4954-6.665 3.8879v27.344q3.418 1.5381 5.8533 2.1362 2.478 0.59814 5.5969 0.59814 6.665 0 10.425-4.3579 3.8025-4.4006 3.8025-13.757z"/>
   <path style="" d="m1026.5 740.42h-8.0322v-27.173q0-3.2898-0.3846-6.1524-0.3845-2.9053-1.4099-4.5288-1.0681-1.7944-3.0761-2.6489-2.0081-0.89722-5.2124-0.89722-3.2898 0-6.8787 1.6235t-6.8787 4.1443v35.632h-8.0322v-47.723h8.0322v5.2978q3.7598-3.1189 7.7759-4.8706t8.2459-1.7517q7.7331 0 11.792 4.657 4.0588 4.657 4.0588 13.416v30.975z"/>
   <path style="" d="m1187.1 740.42h-8.0322v-27.173q0-3.0762-0.2991-5.9387-0.2564-2.8626-1.1536-4.5715-0.9826-1.8372-2.8198-2.7771-1.8372-0.93994-5.2979-0.93994-3.3752 0-6.7504 1.709-3.3753 1.6663-6.7505 4.2725 0.1281 0.98266 0.2136 2.3071 0.085 1.2817 0.085 2.5635v30.548h-8.0322v-27.173q0-3.1616-0.2991-5.9814-0.2563-2.8626-1.1535-4.5715-0.9827-1.8372-2.8198-2.7344-1.8372-0.93994-5.2979-0.93994-3.2898 0-6.6223 1.6235-3.2898 1.6235-6.5796 4.1443v35.632h-8.0322v-47.723h8.0322v5.2978q3.7598-3.1189 7.4768-4.8706 3.7598-1.7517 7.9895-1.7517 4.8706 0 8.2459 2.0508 3.4179 2.0508 5.0842 5.6824 4.8706-4.1016 8.8867-5.896 4.0161-1.8372 8.5876-1.8372 7.8614 0 11.578 4.7852 3.7598 4.7424 3.7598 13.287v30.975z"/>
  </g>
  <path stroke-linejoin="round" d="m390.86 896.91h658.65v61.395h-658.65z" fill-rule="evenodd" stroke="#d1d6d9" stroke-linecap="round" stroke-width="34.265" fill="#d1d6d9"/>
  <g transform="matrix(3.9884 0 0 3.9884 1288.9 659.69)" display="block" fill="#7f8b8f">
   <g fill="#7f8b8f">
    <path fill="#7f8b8f" d="m22 3h-15c-0.7 0-1.2 0.3-1.6 0.9l-5.4 8.1 5.4 8.1c0.4 0.5 0.9 0.9 1.6 0.9h15c1.1 0 2-0.9 2-2v-14c0-1.1-0.9-2-2-2zm-3 12.6-1.4 1.4-3.6-3.6-3.6 3.6-1.4-1.4 3.6-3.6-3.6-3.6 1.4-1.4 3.6 3.6 3.6-3.6 1.4 1.4-3.6 3.6 3.6 3.6z"/>
   </g>
  </g>
  <g transform="matrix(3.8715 0 0 3.5556 143.68 762.07)" display="block" fill="#7f8b8f">
   <g fill="#7f8b8f">
    <path fill="#7f8b8f" d="m-15.186-5.2028h9.1008v-6.5283h7.7335l-12.284-14.381-12.284 14.381h7.7335zm-2.9377 12.132 15.436-0.035512 0.032615-2.0605-15.501-0.042471z"/>
   </g>
  </g>
  <g fill="#5b696f">
   <path style="" d="m58.095 936.92q0.02747-1.9775 0.27466-3.3783t0.79651-2.5543q0.54932-1.1536 1.4282-2.2247 0.90637-1.0986 2.2247-2.4445 0.93384-0.96131 1.7853-1.8128 0.87891-0.8789 1.5106-1.7853 0.65918-0.93384 1.0437-2.005t0.38452-2.4719q0-2.8839-1.5106-4.5044-1.5106-1.648-4.3945-1.648-1.2085 0-2.3346 0.32959-1.0986 0.30213-1.9775 0.98877-0.85144 0.65918-1.3733 1.7029-0.52185 1.0162-0.52185 2.4445h-5.0812q0.02747-2.3346 0.90637-4.1748 0.87891-1.8402 2.3895-3.1036 1.5106-1.2909 3.5431-1.9501 2.0599-0.68665 4.4495-0.68665 2.6367 0 4.6692 0.74158 2.0599 0.71411 3.4607 2.0874 1.4008 1.3458 2.1149 3.2959 0.74158 1.9226 0.74158 4.3121 0 1.8677-0.57678 3.4882t-1.5656 3.1036q-0.9613 1.4557-2.1973 2.774-1.236 1.2909-2.5543 2.5268-1.5106 1.4008-2.0325 3.1586-0.52185 1.7578-0.52185 3.7903h-5.0812zm-0.21973 8.7067q0-1.236 0.74158-2.0599 0.76904-0.85144 2.2522-0.85144t2.2522 0.85144q0.76904 0.82398 0.76904 2.0599 0 1.236-0.76904 2.0599-0.76904 0.7965-2.2522 0.7965t-2.2522-0.7965q-0.74158-0.82398-0.74158-2.0599z"/>
   <path style="" d="m94.899 948.18h-5.1086v-33.865l-10.245 3.7628v-4.6143l14.557-5.4657h0.79651v40.182z"/>
   <path style="" d="m136.04 948.18h-26.202v-3.653l13.101-14.557q1.8128-2.005 2.9938-3.5431 1.2085-1.5381 1.8951-2.8015 0.71411-1.2909 0.98877-2.3895 0.27465-1.1261 0.27465-2.2797 0-1.4832-0.46691-2.774-0.46692-1.3184-1.3458-2.2797-0.87891-0.96131-2.1698-1.5106-1.2909-0.57679-2.9663-0.57679-2.0325 0-3.5431 0.60425-1.4832 0.60425-2.4719 1.6754-0.98877 1.0712-1.4832 2.5818-0.49438 1.4832-0.49438 3.2959h-5.0812q0-2.5268 0.82398-4.779 0.85144-2.2522 2.4994-3.9276t4.0924-2.6367q2.4445-0.98877 5.658-0.98877 2.829 0 5.0537 0.76904 2.2522 0.76905 3.7903 2.1973 1.5656 1.4008 2.3895 3.3783 0.82398 1.9775 0.82398 4.3671 0 1.7578-0.60425 3.5431t-1.6205 3.5706q-1.0162 1.7578-2.3895 3.5156-1.3733 1.7304-2.8839 3.4058l-10.739 11.646h20.078v4.1473z"/>
   <path style="" d="m148.87 925.71h3.6255q1.9775 0 3.4607-0.52185t2.4719-1.4282q0.98877-0.93384 1.4832-2.1698 0.49438-1.2634 0.49438-2.7466 0-3.4332-1.7304-5.2185-1.7303-1.8128-5.2734-1.8128-1.6205 0-2.9663 0.49439-1.3184 0.46692-2.2797 1.3733-0.93383 0.87891-1.4557 2.1698-0.52185 1.2634-0.52185 2.829h-5.0812q0-2.3071 0.8789-4.3121 0.87891-2.005 2.4994-3.4882 1.6205-1.5106 3.8727-2.3621 2.2797-0.87891 5.0537-0.87891 2.7191 0 4.9438 0.74158 2.2247 0.71411 3.7903 2.1423 1.593 1.4008 2.4719 3.5156 0.87891 2.1149 0.87891 4.9164 0 1.1261-0.38452 2.3621-0.35706 1.236-1.1261 2.417-0.74158 1.181-1.9501 2.2247-1.181 1.0162-2.829 1.7029 1.9775 0.63172 3.2959 1.6754 1.3458 1.0162 2.1423 2.2797 0.79651 1.2634 1.1261 2.6642 0.32958 1.4008 0.32958 2.7466 0 2.8015-0.9613 4.9988-0.9613 2.1698-2.6642 3.653t-4.01 2.2797q-2.3071 0.76905-5.0262 0.76905-2.6092 0-4.9164-0.71411-2.3071-0.74158-4.0375-2.1423-1.7303-1.4282-2.7466-3.4882-0.98877-2.0874-0.98877-4.7516h5.1086q0 1.5656 0.52185 2.8564 0.52185 1.2634 1.5106 2.1973 0.98877 0.90637 2.3895 1.4008 1.4008 0.49439 3.1586 0.49439t3.1586-0.43946q1.4008-0.46691 2.3895-1.4008 0.98877-0.93384 1.5106-2.3346 0.52185-1.4008 0.52185-3.2684 0-1.8677-0.60425-3.241t-1.7304-2.2522q-1.0986-0.90638-2.6642-1.3458-1.5656-0.43945-3.5156-0.43945h-3.6255v-4.1473z"/>
  </g>
  <g fill="#5b696f">
   <path style="" d="m296.1 956.31q0 1.9775-0.52734 4.1309-0.4834 2.1533-1.4941 4.2627-0.9668 2.1094-2.373 4.043t-3.252 3.4277l-4.6143-3.1641q2.0654-2.9004 3.1641-5.9766 1.1426-3.0322 1.1426-6.5918v-6.6358h7.9541v6.5039z"/>
  </g>
  <g fill="#5b696f">
   <path style="" d="m1144.8 955.13q0-2.1094 1.2305-3.5156 1.2744-1.4062 3.7793-1.4062t3.7793 1.4062q1.3184 1.4062 1.3184 3.5156 0 2.0215-1.3184 3.3838-1.2744 1.3623-3.7793 1.3623t-3.7793-1.3623q-1.2305-1.3623-1.2305-3.3838z"/>
  </g>
  <path opacity="0.836" d="m1409 928.16a74.751 74.751 0 0 1 -74.644 74.751 74.751 74.751 0 0 1 -74.858 -74.537 74.751 74.751 0 0 1 74.43 -74.965 74.751 74.751 0 0 1 75.072 74.322" fill-rule="evenodd" fill="#4db6ac"/>
  <g transform="matrix(.14853 0 0 .15633 1294.9 889.56)" fill="#fff">
   <title>Layer 1</title>
   <g fill="#fff">
    <g fill-rule="evenodd" clip-rule="evenodd" fill="#fff">
     <path d="m324.29 270c-5.5918 8.1719-6.8818 13.296-16.18 21.87-9.2983 8.5742-17.84 16.551-25.029 20.464l153.03 147.71 38.829-34.36z"/>
     <path d="m305.28 77.695c-65.176-60.078-169.79-60.078-234.97 0-65.151 60.101-65.151 156.57 0 216.67 65.175 60.101 169.79 60.101 234.97 0 65.176-60.101 65.176-156.57 0-216.67zm-34.198 31.535c-46.204-42.607-120.39-42.607-166.57 0-46.205 42.583-46.205 110.99 0 153.6 46.18 42.606 120.37 42.606 166.57 0 46.205-42.607 46.205-111.02 0-153.6z"/>
    </g>
   </g>
  </g>
  <path d="m1.1124 8.836h1440v155.73h-1440z" fill-rule="evenodd" fill="#ebe9ef"/>
  <g transform="matrix(3.9699 0 0 3.9699 1320.6 33.586)" display="block" fill="#6d717a">
   <g fill="#6d717a">
    <path fill="#6d717a" d="m12 15c1.7 0 3-1.3 3-3v-6c0-1.7-1.3-3-3-3s-3 1.3-3 3v6c0 1.7 1.3 3 3 3zm5.3-3c0 3-2.5 5.1-5.3 5.1s-5.3-2.1-5.3-5.1h-1.7c0 3.4 2.7 6.2 6 6.7v3.3h2v-3.3c3.3-0.5 6-3.3 6-6.7h-1.7z"/>
   </g>
  </g>
  <path stroke-linejoin="bevel" d="m925.79 46.755 0.0682 0.12664-0.005 83.97-0.13102-83.97 0.068-0.12675z" stroke="#d1d6d9" stroke-linecap="square" stroke-miterlimit="0" stroke-width="2" fill="none"/>
  <path d="m924.14 46.756 0.0682 0.12664-0.005 83.97-0.13102-83.97 0.068-0.12675z" stroke="#fff" stroke-linecap="square" stroke-miterlimit="0" fill="none"/>
  <path d="m511.46 46.692 0.0682 0.12664-0.005 83.97-0.13112-83.97 0.068-0.12675z" stroke="#d1d6d9" stroke-linecap="square" stroke-miterlimit="0" stroke-width="2" fill="none"/>
  <path d="m509.94 46.693 0.0682 0.12664-0.005 83.97-0.13112-83.97 0.068-0.12675z" stroke="#fff" stroke-linecap="square" stroke-miterlimit="0" fill="none"/>
 </g>
</svg>
